<?xml version="1.0" encoding="UTF-8" standalone="no"?>
<svg
   width="451.0874"
   height="99.943115"
   viewBox="0 0 451.08741 99.943116"
   fill="none"
   version="1.1"
   id="svg294"
   sodipodi:docname="logo.svg"
   inkscape:export-filename="logo.png"
   inkscape:export-xdpi="96"
   inkscape:export-ydpi="96"
   inkscape:version="1.2.2 (b0a84865, 2022-12-01)"
   xmlns:inkscape="http://www.inkscape.org/namespaces/inkscape"
   xmlns:sodipodi="http://sodipodi.sourceforge.net/DTD/sodipodi-0.dtd"
   xmlns="http://www.w3.org/2000/svg"
   xmlns:svg="http://www.w3.org/2000/svg">
  <sodipodi:namedview
     id="namedview296"
     pagecolor="#ffffff"
     bordercolor="#000000"
     borderopacity="0.25"
     inkscape:showpageshadow="2"
     inkscape:pageopacity="0.0"
     inkscape:pagecheckerboard="0"
     inkscape:deskcolor="#d1d1d1"
     showgrid="false"
     inkscape:zoom="1.3705179"
     inkscape:cx="222.90843"
     inkscape:cy="178.39971"
     inkscape:window-width="1390"
     inkscape:window-height="1027"
     inkscape:window-x="0"
     inkscape:window-y="25"
     inkscape:window-maximized="0"
     inkscape:current-layer="svg294" />
  <mask
     id="path-1-outside-1_12_4"
     maskUnits="userSpaceOnUse"
     x="-3"
     y="-3"
     width="508"
     height="33"
     fill="#000000">
    <rect
       fill="#ffffff"
       x="-3"
       y="-3"
       width="508"
       height="33"
       id="rect278" />
    <path
       d="m 12.5,10.808 c 0.456,0 0.684,0.84 0.684,2.52 0,0.504 -0.06,1.104 -0.18,1.8 -0.096,0.672 -0.288,1.008 -0.576,1.008 H 7.856 v 3.6 h 6.624 c 0.408,0 0.684,0.528 0.828,1.584 0.072,0.456 0.108,0.948 0.108,1.476 0,0.504 -0.072,1.164 -0.216,1.98 C 15.056,25.592 14.816,26 14.48,26 H 2.168 C 1.256,26 0.8,25.628 0.8,24.884 V 1.736 C 0.8,1.112 1.076,0.799998 1.628,0.799998 h 12.888 c 0.504,0 0.756,1.068002 0.756,3.204002 0,2.112 -0.252,3.168 -0.756,3.168 h -6.66 v 3.636 z m 9.5099,6.408 c 0.456,0.36 1.236,0.852 2.34,1.476 1.128,0.624 2.196,0.936 3.204,0.936 1.032,0 1.548,-0.396 1.548,-1.188 0,-0.36 -0.144,-0.672 -0.432,-0.936 -0.288,-0.288 -0.816,-0.612 -1.584,-0.972 -0.768,-0.36 -1.344,-0.636 -1.728,-0.828 -0.384,-0.216 -0.9,-0.552 -1.548,-1.008 -0.624,-0.48 -1.104,-0.972 -1.44,-1.476 -0.96,-1.368 -1.44,-3.108 -1.44,-5.22 0,-2.112 0.78,-3.888 2.34,-5.328 1.584,-1.464 3.648,-2.196002 6.192,-2.196002 1.728,0 3.324,0.192001 4.788,0.576002 1.464,0.36 2.22,0.84 2.268,1.44 0,0.072 0,0.144 0,0.216 0,0.84 -0.264,1.908 -0.792,3.204 -0.528,1.272 -0.9,1.98 -1.116,2.124 -1.536,-0.792 -2.916,-1.188 -4.14,-1.188 -1.2,0 -1.8,0.432 -1.8,1.296 0,0.528 0.444,0.996 1.332,1.404 0.192,0.096 0.468,0.228 0.828,0.396 0.36,0.168 0.768,0.372 1.224,0.612 0.48,0.216 0.984,0.504 1.512,0.864 0.552,0.336 1.14,0.792 1.764,1.368 1.272,1.2 1.908,2.784 1.908,4.752 0,2.568 -0.708,4.668 -2.124,6.3 -1.416,1.632 -3.6,2.472 -6.552,2.52 -1.44,0 -2.748,-0.12 -3.924,-0.36 -1.152,-0.24 -2.16,-0.708 -3.024,-1.404 -0.864,-0.696 -1.296,-1.536 -1.296,-2.52 0,-0.984 0.18,-1.956 0.54,-2.916 0.36,-0.984 0.744,-1.632 1.152,-1.944 z M 53.0149,0.475998 c 1.752,0 3.288,0.252 4.608,0.756002 1.344,0.48 2.016,1.14 2.016,1.98 0,0.84 -0.324,1.884 -0.972,3.132 -0.624,1.224 -1.152,1.836 -1.584,1.836 -0.12,0 -0.264,-0.06 -0.432,-0.18 -0.144,-0.144 -0.504,-0.288 -1.08,-0.432 -0.552,-0.168 -1.032,-0.252 -1.44,-0.252 -1.392,0 -2.52,0.492 -3.384,1.476 -0.84,0.984 -1.26,2.496 -1.26,4.536 0,2.016 0.432,3.516 1.296,4.5 0.888,0.984 2.004,1.476 3.348,1.476 0.552,0 1.164,-0.072 1.836,-0.216 0.696,-0.168 1.188,-0.396 1.476,-0.684 0.048,-0.048 0.144,-0.072 0.288,-0.072 0.144,0 0.408,0.276 0.792,0.828 0.408,0.528 0.78,1.236 1.116,2.124 0.336,0.864 0.504,1.536 0.504,2.016 0,0.936 -0.72,1.68 -2.16,2.232 -1.44,0.552 -3.144,0.828 -5.112,0.828 -3.168,0 -5.772,-1.116 -7.812,-3.348 -2.04,-2.232 -3.06,-5.376 -3.06,-9.432 0,-4.08 1.044,-7.284 3.132,-9.612 2.112,-2.328 4.74,-3.492002 7.884,-3.492002 z M 82.3386,26.072 c -2.088,0 -3.216,-0.336 -3.384,-1.008 l -1.188,-4.644 h -5.724 l -1.044,4.464 c -0.144,0.744 -1.296,1.116 -3.456,1.116 -1.152,0 -2.004,-0.06 -2.556,-0.18 -0.552,-0.144 -0.828,-0.252 -0.828,-0.324 l 6.372,-24.372 c 0,-0.192002 1.644,-0.288002 4.932,-0.288002 3.288,0 4.932,0.096 4.932,0.288002 l 6.228,24.408 c 0,0.168 -0.552,0.3 -1.656,0.396 -1.104,0.096 -1.98,0.144 -2.628,0.144 z m -9.396,-10.224 h 3.78 l -1.62,-7.452 h -0.216 z m 21.7178,10.224 c -2.184,0 -3.276,-0.24 -3.276,-0.72 V 2.024 c 0,-0.816 0.372,-1.224002 1.116,-1.224002 h 6.336 c 3.5516,0 6.1076,0.732002 7.6676,2.196002 1.584,1.464 2.376,3.588 2.376,6.372 0,2.304 -0.744,4.416 -2.232,6.336 -0.744,0.96 -1.836,1.728 -3.276,2.304 -1.44,0.576 -3.12,0.864 -5.0396,0.864 v 6.444 c 0,0.288 -0.456,0.492 -1.368,0.612 -0.888,0.096 -1.656,0.144 -2.304,0.144 z m 3.672,-19.008 v 5.688 h 0.468 c 0.84,0 1.5476,-0.264 2.1236,-0.792 0.576,-0.528 0.864,-1.272 0.864,-2.232 0,-0.96 -0.204,-1.644 -0.612,-2.052 -0.384,-0.408 -1.08,-0.612 -2.0876,-0.612 z m 27.9476,3.744 c 0.456,0 0.684,0.84 0.684,2.52 0,0.504 -0.06,1.104 -0.18,1.8 -0.096,0.672 -0.288,1.008 -0.576,1.008 h -4.572 v 3.6 h 6.624 c 0.408,0 0.684,0.528 0.828,1.584 0.072,0.456 0.108,0.948 0.108,1.476 0,0.504 -0.072,1.164 -0.216,1.98 -0.144,0.816 -0.384,1.224 -0.72,1.224 h -12.312 c -0.912,0 -1.368,-0.372 -1.368,-1.116 V 1.736 c 0,-0.624 0.276,-0.936002 0.828,-0.936002 h 12.888 c 0.504,0 0.756,1.068002 0.756,3.204002 0,2.112 -0.252,3.168 -0.756,3.168 h -6.66 v 3.636 z M 157.623,0.799998 c 0.408,0 0.612,1.068002 0.612,3.204002 0,2.112 -0.204,3.168 -0.612,3.168 h -6.588 v 4.104 h 4.392 c 0.408,0 0.612,0.936 0.612,2.808 0,1.848 -0.192,2.772 -0.576,2.772 h -4.428 v 8.676 c 0,0.336 -0.456,0.552 -1.368,0.648 -0.888,0.12 -1.632,0.18 -2.232,0.18 l -1.692,-0.072 c -1.176,-0.144 -1.764,-0.384 -1.764,-0.72 V 1.736 c 0,-0.384 0.072,-0.636 0.216,-0.756002 0.168,-0.12 0.408,-0.18 0.72,-0.18 z M 170.535,25.496 c 0,0.384 -1.14,0.576 -3.42,0.576 -2.304,0 -3.456,-0.18 -3.456,-0.54 V 2.06 c 0,-0.84 0.444,-1.260002 1.332,-1.260002 h 6.876 c 6.312,0 9.468,2.460002 9.468,7.380002 0,1.488 -0.288,2.844 -0.864,4.068 -0.576,1.2 -1.392,2.16 -2.448,2.88 l 4.536,7.56 c -0.192,0.576 -0.816,1.236 -1.872,1.98 -1.44,1.032 -2.628,1.548 -3.564,1.548 -0.936,0 -1.632,-0.336 -2.088,-1.008 l -3.384,-7.884 h -1.116 z m 0,-18.324 v 5.4 h 0.18 c 2.28,0 3.42,-0.948 3.42,-2.844 0,-0.864 -0.228,-1.5 -0.684,-1.908 -0.432,-0.432 -1.152,-0.648 -2.16,-0.648 z m 27.571,19.188 c -3.36,0 -6.108,-1.104 -8.244,-3.312 -2.112,-2.208 -3.168,-5.424 -3.168,-9.648 0,-4.248 1.068,-7.464 3.204,-9.648 2.16,-2.184 4.932,-3.276002 8.316,-3.276002 3.408,0 6.156,1.080002 8.244,3.240002 2.088,2.136 3.132,5.388 3.132,9.756 0,4.344 -1.068,7.584 -3.204,9.72 -2.136,2.112 -4.896,3.168 -8.28,3.168 z m 0.036,-18.972 c -1.152,0 -2.124,0.528 -2.916,1.584 -0.768,1.056 -1.152,2.544 -1.152,4.464 0,1.896 0.372,3.36 1.116,4.392 0.744,1.008 1.716,1.512 2.916,1.512 1.224,0 2.208,-0.516 2.952,-1.548 0.768,-1.032 1.152,-2.508 1.152,-4.428 0,-1.92 -0.396,-3.396 -1.188,-4.428 -0.768,-1.032 -1.728,-1.548 -2.88,-1.548 z M 240.2,26.036 c -2.136,0 -3.204,-0.24 -3.204,-0.72 L 236.24,10.88 231.848,25.496 c -0.096,0.288 -0.912,0.432 -2.448,0.432 -1.536,0 -2.328,-0.132 -2.376,-0.396 L 222.488,10.736 221.984,25.1 c -0.024,0.36 -0.48,0.612 -1.368,0.756 -0.888,0.12 -1.632,0.18 -2.232,0.18 -0.576,0 -1.14,-0.036 -1.692,-0.108 -1.152,-0.168 -1.716,-0.468 -1.692,-0.9 l 0.828,-23.4 c 0,-0.576 1.464,-0.864001 4.392,-0.864001 0.864,0 1.92,0.072 3.168,0.215999 C 224.636,1.1 225.332,1.352 225.476,1.736 l 4.032,11.34 3.528,-11.376 c 0.216,-0.624 1.872,-0.936001 4.968,-0.936001 0.888,0 1.944,0.072 3.168,0.215999 C 242.42,1.1 243.044,1.328 243.044,1.664 l 1.044,23.616 c 0,0.264 -0.468,0.456 -1.404,0.576 -0.936,0.12 -1.764,0.18 -2.484,0.18 z m 38.869,-0.648 c 0,0.408 -1.212,0.612 -3.636,0.612 -2.424,0 -3.636,-0.204 -3.636,-0.612 v -8.28 h -5.04 v 8.28 c 0,0.408 -1.212,0.612 -3.636,0.612 -2.424,0 -3.636,-0.204 -3.636,-0.612 V 1.52 c 0,-0.504 1.212,-0.756001 3.636,-0.756001 2.424,0 3.636,0.252001 3.636,0.756001 v 8.46 h 5.04 V 1.592 c 0,-0.336 0.6,-0.576 1.8,-0.72 0.624,-0.048001 1.236,-0.072002 1.836,-0.072002 L 277.269,0.872 c 1.2,0.144 1.8,0.384 1.8,0.72 z m 17.804,-14.58 c 0.456,0 0.684,0.84 0.684,2.52 0,0.504 -0.06,1.104 -0.18,1.8 -0.096,0.672 -0.288,1.008 -0.576,1.008 h -4.572 v 3.6 h 6.624 c 0.408,0 0.684,0.528 0.828,1.584 0.072,0.456 0.108,0.948 0.108,1.476 0,0.504 -0.072,1.164 -0.216,1.98 -0.144,0.816 -0.384,1.224 -0.72,1.224 h -12.312 c -0.912,0 -1.368,-0.372 -1.368,-1.116 V 1.736 c 0,-0.624 0.276,-0.936002 0.828,-0.936002 h 12.888 c 0.504,0 0.756,1.068002 0.756,3.204002 0,2.112 -0.252,3.168 -0.756,3.168 h -6.66 v 3.636 z m 25.494,15.264 c -2.088,0 -3.216,-0.336 -3.384,-1.008 l -1.188,-4.644 h -5.724 l -1.044,4.464 c -0.144,0.744 -1.296,1.116 -3.456,1.116 -1.152,0 -2.004,-0.06 -2.556,-0.18 -0.552,-0.144 -0.828,-0.252 -0.828,-0.324 l 6.372,-24.372 c 0,-0.192002 1.644,-0.288002 4.932,-0.288002 3.288,0 4.932,0.096 4.932,0.288002 l 6.228,24.408 c 0,0.168 -0.552,0.3 -1.656,0.396 -1.104,0.096 -1.98,0.144 -2.628,0.144 z m -9.396,-10.224 h 3.78 l -1.62,-7.452 h -0.216 z m 28.508,9.576 c 0,0.48 -1.188,0.72 -3.564,0.72 -2.376,0 -3.564,-0.24 -3.564,-0.72 V 7.352 h -4.32 c -0.408,0 -0.696,-0.552 -0.864,-1.656 -0.072,-0.528 -0.108,-1.068 -0.108,-1.62 0,-0.552 0.036,-1.092 0.108,-1.62 0.168,-1.104 0.456,-1.656002 0.864,-1.656002 h 15.66 c 0.408,0 0.696,0.552002 0.864,1.656002 0.072,0.528 0.108,1.068 0.108,1.62 0,0.552 -0.036,1.092 -0.108,1.62 -0.168,1.104 -0.456,1.656 -0.864,1.656 h -4.212 z m 21.435,-5.616 V 6.992 h -2.556 c -0.408,0 -0.696,-0.516 -0.864,-1.548 -0.072,-0.504 -0.108,-1.02 -0.108,-1.548 0,-0.528 0.036,-1.044 0.108,-1.548 0.168,-1.032 0.456,-1.548002 0.864,-1.548002 h 12.096 c 0.408,0 0.684,0.516002 0.828,1.548002 0.096,0.504 0.144,1.02 0.144,1.548 0,0.528 -0.048,1.044 -0.144,1.548 -0.144,1.032 -0.42,1.548 -0.828,1.548 h -2.412 v 12.816 h 2.52 c 0.408,0 0.696,0.516 0.864,1.548 0.096,0.504 0.144,1.02 0.144,1.548 0,0.528 -0.048,1.044 -0.144,1.548 C 373.258,25.484 372.97,26 372.562,26 H 360.43 c -0.408,0 -0.684,-0.516 -0.828,-1.548 -0.096,-0.504 -0.144,-1.02 -0.144,-1.548 0,-0.528 0.048,-1.044 0.144,-1.548 0.144,-1.032 0.42,-1.548 0.828,-1.548 z m 16.514,-2.592 c 0.456,0.36 1.236,0.852 2.34,1.476 1.128,0.624 2.196,0.936 3.204,0.936 1.032,0 1.548,-0.396 1.548,-1.188 0,-0.36 -0.144,-0.672 -0.432,-0.936 -0.288,-0.288 -0.816,-0.612 -1.584,-0.972 -0.768,-0.36 -1.344,-0.636 -1.728,-0.828 -0.384,-0.216 -0.9,-0.552 -1.548,-1.008 -0.624,-0.48 -1.104,-0.972 -1.44,-1.476 -0.96,-1.368 -1.44,-3.108 -1.44,-5.22 0,-2.112 0.78,-3.888 2.34,-5.328 1.584,-1.464 3.648,-2.196002 6.192,-2.196002 1.728,0 3.324,0.192001 4.788,0.576002 1.464,0.36 2.22,0.84 2.268,1.44 0,0.072 0,0.144 0,0.216 0,0.84 -0.264,1.908 -0.792,3.204 -0.528,1.272 -0.9,1.98 -1.116,2.124 -1.536,-0.792 -2.916,-1.188 -4.14,-1.188 -1.2,0 -1.8,0.432 -1.8,1.296 0,0.528 0.444,0.996 1.332,1.404 0.192,0.096 0.468,0.228 0.828,0.396 0.36,0.168 0.768,0.372 1.224,0.612 0.48,0.216 0.984,0.504 1.512,0.864 0.552,0.336 1.14,0.792 1.764,1.368 1.272,1.2 1.908,2.784 1.908,4.752 0,2.568 -0.708,4.668 -2.124,6.3 -1.416,1.632 -3.6,2.472 -6.552,2.52 -1.44,0 -2.748,-0.12 -3.924,-0.36 -1.152,-0.24 -2.16,-0.708 -3.024,-1.404 -0.864,-0.696 -1.296,-1.536 -1.296,-2.52 0,-0.984 0.18,-1.956 0.54,-2.916 0.36,-0.984 0.744,-1.632 1.152,-1.944 z m 20.349,6.66 V 1.484 c 0,-0.504001 1.212,-0.756001 3.636,-0.756001 2.448,0 3.672,0.252 3.672,0.756001 v 17.64 h 5.544 c 0.432,0 0.732,0.564 0.9,1.692 0.072,0.552 0.108,1.116 0.108,1.692 0,0.576 -0.036,1.164 -0.108,1.764 -0.192,1.152 -0.504,1.728 -0.936,1.728 h -11.088 c -0.528,0 -0.948,-0.216 -1.26,-0.648 -0.312,-0.432 -0.468,-0.924 -0.468,-1.476 z m 35.445,2.196 c -2.088,0 -3.216,-0.336 -3.384,-1.008 L 430.65,20.42 h -5.724 l -1.044,4.464 c -0.144,0.744 -1.296,1.116 -3.456,1.116 -1.152,0 -2.004,-0.06 -2.556,-0.18 -0.552,-0.144 -0.828,-0.252 -0.828,-0.324 l 6.372,-24.372 c 0,-0.192002 1.644,-0.288002 4.932,-0.288002 3.288,0 4.932,0.096 4.932,0.288002 l 6.228,24.408 c 0,0.168 -0.552,0.3 -1.656,0.396 -1.104,0.096 -1.98,0.144 -2.628,0.144 z m -9.396,-10.224 h 3.78 l -1.62,-7.452 h -0.216 z m 38.313,9.36 c 0,0.504 -1.128,0.756 -3.384,0.756 -2.256,0 -3.48,-0.18 -3.672,-0.54 l -6.012,-11.232 v 11.196 c 0,0.432 -1.116,0.648 -3.348,0.648 -2.208,0 -3.312,-0.216 -3.312,-0.648 V 1.304 c 0,-0.360001 0.948,-0.540001 2.844,-0.540001 0.744,0 1.608,0.072 2.592,0.215999 C 450.855,1.1 451.467,1.34 451.683,1.7 l 5.76,11.088 V 1.484 c 0,-0.456 1.116,-0.684002 3.348,-0.684002 2.232,0 3.348,0.228002 3.348,0.684002 z m 6.136,-0.864 v -21.6 c 0,-0.6 0.144,-1.068 0.432,-1.404 0.312,-0.360002 0.708,-0.540002 1.188,-0.540002 h 6.012 c 3.816,0 6.708,0.960002 8.676,2.880002 1.992,1.92 2.988,4.944 2.988,9.072 0,8.832 -3.768,13.248 -11.304,13.248 h -6.156 c -1.224,0 -1.836,-0.552 -1.836,-1.656 z M 477.187,7.64 v 10.764 c 0,0.504 0.036,0.828 0.108,0.972 0.072,0.12 0.288,0.18 0.648,0.18 1.32,0 2.316,-0.492 2.988,-1.476 0.696,-0.984 1.044,-2.616 1.044,-4.896 0,-2.304 -0.36,-3.804 -1.08,-4.5 -0.696,-0.696 -1.812,-1.044 -3.348,-1.044 z m 23.552,10.8 c 0,0.144 -0.864,0.216 -2.592,0.216 -1.704,0 -2.556,-0.06 -2.556,-0.18 l -0.72,-17.748001 c 0,-0.192 1.092,-0.288 3.276,-0.288 2.208,0 3.312,0.084 3.312,0.252001 z m -5.94,2.16 c 0,-0.168 1.104,-0.252 3.312,-0.252 2.232,0 3.348,0.072 3.348,0.216 v 5.184 c 0,0.24 -1.116,0.36 -3.348,0.36 -2.208,0 -3.312,-0.072 -3.312,-0.216 z"
       id="path280" />
  </mask>
  <path
     d="m 5.6125368,-77.015722 c 0.2901961,-0.186708 0.8893421,0.426887 1.7972342,1.840433 0.2724109,0.424132 0.5585054,0.953282 0.8588904,1.587655 0.3025565,0.604359 0.363039,0.964881 0.1812518,1.081861 -0.7730098,0.497435 -1.5448878,0.996456 -2.3155774,1.497138 -0.1883846,0.122386 -0.376661,0.244844 -0.564822,0.367387 l 1.9646335,3.016661 c 0.1869637,-0.121764 0.3740982,-0.243481 0.5613962,-0.365163 1.1941764,-0.775817 2.3914815,-1.547776 3.5916995,-2.316166 0.256563,-0.164253 0.714728,0.169581 1.373684,1.001697 0.290725,0.3554 0.578105,0.755596 0.862339,1.200583 0.271387,0.424874 0.581378,1.009649 0.930932,1.754834 0.349491,0.745049 0.419769,1.184352 0.210467,1.318348 -1.188946,0.761167 -2.374558,1.525591 -3.55662,2.293563 l 0,0 c -1.200612,0.780029 -2.3903204,1.558786 -3.5671938,2.339099 l -4e-7,0 c -0.1560081,0.10344 -0.310803,0.206238 -0.4643494,0.308448 -0.1778778,0.118407 -0.3471105,0.183773 -0.5091863,0.196856 0,0 -1e-7,0 -1e-7,0 -0.129685,0.01047 -0.2523083,-0.01455 -0.3705457,-0.07278 -0.3773296,-0.515701 -0.7144178,-0.979394 -1.0017972,-1.376239 2e-7,0 -1.1e-6,-2e-6 -1.1e-6,-2e-6 -1.2192964,-1.772167 -2.3868607,-3.506265 -3.6061571,-5.278432 l -4.6958489,-6.85113 c -0.050875,-0.07423 -1.1754036,-1.834908 -3.5393608,-5.447838 0,0 -9e-7,-2e-6 -9e-7,-2e-6 -0.2545162,-0.424203 -0.5523016,-0.91932 -0.8845819,-1.468556 0.013516,-0.127963 0.067439,-0.240419 0.1586354,-0.335338 0.036385,-0.03787 0.079144,-0.07322 0.1282386,-0.106023 0.2895728,-0.193471 0.5762874,-0.384112 0.8599702,-0.57218 l 5e-7,0 c 1.2586429,-0.834418 2.5138615,-1.656169 3.7637231,-2.468081 l 5e-7,-10e-7 c 1.23853493,-0.80456 2.47894987,-1.60426 3.7210262,-2.399396 0.3259337,-0.208652 1.0640374,0.587223 2.2141385,2.387151 1.1371786,1.779704 1.5442066,2.772694 1.2212995,2.979407 -1.2305428,0.787746 -2.4589908,1.579736 -3.6851254,2.376266 -0.19109,0.124137 -0.38220973,0.248441 -0.57335202,0.372923 l 1.98427982,3.046828 c 0.189933,-0.123696 0.3798994,-0.247251 0.569892,-0.370678 0.792534,-0.51486 1.5861502,-1.027879 2.3807885,-1.539138 z m 9.4826362,1.563134 c 0.481561,0.12277 1.237548,0.227966 2.269612,0.318548 1.04687,0.08101 1.889292,-0.07648 2.529713,-0.474554 0.655411,-0.407389 0.775465,-0.947156 0.358241,-1.620511 -0.189615,-0.306018 -0.445687,-0.514413 -0.768402,-0.624923 -0.335279,-0.130873 -0.842916,-0.197413 -1.522637,-0.198452 -0.680718,-0.001 -1.192192,-0.006 -1.53959,-0.01606 -0.35943,-0.03038 -0.86597,-0.109707 -1.5215,-0.237294 -0.652753,-0.157472 -1.220576,-0.38183 -1.703247,-0.673753 -1.34021,-0.772798 -2.576673,-2.05102 -3.702893,-3.837195 -1.1265946,-1.786768 -1.5723367,-3.605031 -1.3273037,-5.459313 0.247702,-1.883466 1.2023881,-3.343289 2.8580257,-4.368356 0.120015,-0.07431 0.240213,-0.14611 0.360591,-0.215414 1.007115,-0.579932 2.027458,-0.985186 3.059176,-1.215663 1.142587,-0.278509 1.885894,-0.169174 2.229734,0.32364 l 0.112569,0.184354 c 0.437919,0.71718 0.822134,1.733228 1.155873,3.048617 0.32119,1.294813 0.45076,2.045435 0.386262,2.254045 -1.407182,-0.0664 -2.507981,0.146623 -3.298668,0.635259 -0.106148,0.0656 -0.200757,0.133618 -0.283825,0.204044 0,0 0,0 0,0 -0.523873,0.444091 -0.588623,0.983324 -0.195645,1.616997 0.278318,0.448785 0.81102,0.668817 1.597423,0.662138 0,0 0.008,2.35e-4 0.008,2.35e-4 0.173825,0.005 0.417958,0.0073 0.733313,0.0071 0.320031,-2.03e-4 0.689942,0.01133 1.109392,0.03479 0.422345,-0.0065 0.897829,0.03913 1.426147,0.137117 0.53119,0.06804 1.148184,0.224621 1.850324,0.470185 1.445316,0.522814 2.677428,1.626563 3.702083,3.307064 1.336662,2.192211 1.977256,4.26205 1.930421,6.203527 -0.03883,1.609838 -0.692179,2.95921 -1.960187,4.054374 0,0 -1e-6,0 -1e-6,0 -0.261953,0.226303 -0.550112,0.441752 -0.864507,0.64645 -0.908001,0.563254 -1.794441,0.974355 -2.661142,1.233301 -0.851543,0.249489 -1.733247,0.250533 -2.646895,0.0033 -0.913479,-0.247207 -1.633887,-0.785731 -2.159211,-1.617733 -0.525338,-0.832022 -0.93093,-1.725512 -1.215281,-2.681154 -0.297154,-0.975948 -0.398863,-1.677687 -0.305981,-2.104715 z m 11.356426,-26.521022 c 1.1556,-0.68195 2.298472,-1.05995 3.424924,-1.13441 1.130456,-0.10446 1.906264,0.20845 2.328578,0.9344 0.422544,0.72634 0.733288,1.75263 0.936155,3.079252 0.206507,1.296436 0.169804,2.026724 -0.113106,2.192222 -0.07859,0.04597 -0.203176,0.04936 -0.373831,0.01022 -0.167026,-0.06903 -0.475672,-0.05526 -0.925713,0.0419 -0.44649,0.06725 -0.803385,0.179679 -1.0704,0.336877 -0.911174,0.536429 -1.398307,1.39652 -1.459751,2.576936 -0.04582,1.171742 0.454186,2.632803 1.496973,4.386637 1.03014,1.732565 2.076736,2.856186 3.135244,3.372004 1.074518,0.506901 2.043179,0.505384 2.909649,-0.0047 0.355932,-0.209553 0.714136,-0.503628 1.075131,-0.882264 0.364343,-0.408419 0.567179,-0.791139 0.608074,-1.148645 0.0068,-0.05958 0.05679,-0.116597 0.149932,-0.171009 0.09314,-0.05441 0.403203,0.08411 0.929502,0.416206 0.529753,0.302331 1.12637,0.774143 1.789654,1.415656 0.651074,0.620632 1.096968,1.139175 1.338048,1.554047 0.47036,0.809433 0.380707,1.721359 -0.263867,2.736801 -0.644742,1.015707 -1.594715,1.892404 -2.851591,2.634396 -2.022662,1.194069 -4.250463,1.225118 -6.702355,0.09315 -2.44971,-1.130959 -4.73301,-3.427373 -6.829104,-6.898391 -2.109761,-3.49365 -3.090639,-6.642251 -2.923296,-9.459668 0.182896,-2.824537 1.316798,-4.857455 3.39115,-6.081575 z m 31.885329,11.260057 c -1.353841,0.747585 -2.246932,0.861965 -2.683031,0.335036 -1.009638,-1.209624 -2.020816,-2.41819 -3.033527,-3.625701 -1.243984,0.694445 -2.486068,1.392523 -3.726266,2.094168 0.506484,1.423076 1.014368,2.845518 1.523646,4.267325 0.274214,0.700429 -0.286136,1.444012 -1.676132,2.238559 -0.74169,0.423964 -1.319049,0.686483 -1.733985,0.78656 -0.426724,0.07923 -0.658091,0.08795 -0.694026,0.02556 -2.68882,-7.82659 -5.332042,-15.673744 -7.928212,-23.541664 -0.09479,-0.16697 0.951496,-0.87487 3.148661,-2.10798 2.197166,-1.23312 3.347237,-1.75779 3.440378,-1.5899 5.337677,6.34286 10.63312,12.71482 15.884973,19.116245 0.08056,0.14742 -0.215295,0.459123 -0.886221,0.936753 -0.671144,0.477786 -1.215755,0.832839 -1.636258,1.065039 z m -11.105366,-5.508506 c 0.824365,-0.465408 1.649585,-0.929262 2.475664,-1.391542 -1.567055,-1.969526 -3.137472,-3.936799 -4.711222,-5.901829 -0.04763,0.0268 -0.09526,0.0535 -0.142879,0.0803 0.788389,2.4063 1.581215,4.810665 2.378437,7.213091 z m 19.122047,1.147996 c -1.425135,0.763334 -2.2501,0.938492 -2.478529,0.515543 L 52.789609,-115.0839 c -0.387724,-0.71789 -0.330929,-1.21256 0.171635,-1.48324 1.426049,-0.76808 2.85485,-1.53157 4.286421,-2.29038 0.08267,-0.0438 0.164963,-0.0864 0.24687,-0.12786 0,0 10e-7,0 10e-7,0 2.300083,-1.16489 4.297014,-1.3816 5.971562,-0.65918 1.752275,0.74043 3.261269,2.35084 4.539554,4.82582 1.05749,2.04749 1.525811,4.18344 1.419166,6.40244 -0.05334,1.10979 -0.42475,2.16899 -1.112799,3.17977 -0.582527,0.85577 -1.372626,1.58903 -2.371494,2.20216 -0.180829,0.11108 -0.368501,0.21822 -0.563026,0.32144 l 3.020681,5.692142 c 0.135054,0.254495 -0.06794,0.592756 -0.607567,1.016038 -0.535326,0.393825 -1.014001,0.704117 -1.437004,0.930687 z m -6.511212,-18.069147 2.666299,5.02435 c 0.103961,-0.0552 0.207936,-0.11032 0.311925,-0.16544 0.09084,-0.0481 0.176117,-0.10119 0.255834,-0.15912 0.411593,-0.29916 0.675039,-0.72899 0.791075,-1.29031 0.138475,-0.66986 -0.01505,-1.43 -0.462092,-2.27959 -0.447113,-0.84974 -0.902405,-1.38294 -1.366906,-1.59942 -0.431637,-0.21659 -0.970019,-0.16296 -1.613606,0.16167 0,0 0,0 0,0 -0.0247,0.0125 -0.04956,0.0253 -0.07457,0.0386 -0.169356,0.0897 -0.338674,0.17947 -0.507955,0.26931 z m 20.594609,-6.31809 c 0.31035,-0.15175 0.834044,0.52778 1.570851,2.03815 0.221084,0.45319 0.443469,1.01228 0.66786,1.67758 0.230039,0.63573 0.24817,1.0009 0.05409,1.09584 -1.026979,0.50238 -2.052523,1.00811 -3.076679,1.51698 l 1.602392,3.22512 c 1.474386,-0.73263 2.951293,-1.45854 4.430862,-2.17719 0.273399,-0.13279 0.688853,0.25283 1.245354,1.15696 0.246881,0.38727 0.485228,0.8186 0.715294,1.29402 0.219678,0.45396 0.45908,1.07113 0.719317,1.85223 0.260179,0.78093 0.27936,1.22516 0.05691,1.33324 -2.717018,1.32008 -5.427214,2.66588 -8.131501,4.03388 -0.600703,0.30388 -1.069704,0.12518 -1.406877,-0.53848 l -10.488471,-20.64446 c -0.282712,-0.55646 -0.235014,-0.93099 0.143982,-1.12309 2.948559,-1.49457 5.914021,-2.96769 8.897433,-4.41533 0.350009,-0.16984 0.99074,0.70703 1.921821,2.63007 0.920618,1.90143 1.20783,2.93581 0.861952,3.10369 -1.523514,0.73947 -3.042941,1.48592 -4.558426,2.2388 l 1.618415,3.25737 c 1.050067,-0.5217 2.101855,-1.04022 3.155412,-1.55538 z m 17.658523,-19.11367 c 0.291614,-0.12449 0.855834,0.79588 1.692381,2.76063 0.82715,1.94268 1.09704,2.97508 0.80991,3.09768 -1.545413,0.65992 -3.086208,1.32907 -4.622521,2.00692 l 1.656986,3.75393 c 1.014431,-0.44771 2.030655,-0.8915 3.048715,-1.33121 0.28372,-0.12254 0.7958,0.6759 1.53602,2.39485 0.73073,1.69691 0.96431,2.60204 0.7009,2.71583 -1.01248,0.43735 -2.02337,0.87893 -3.032715,1.32456 l 3.502925,7.93594 c 0.13573,0.30749 -0.0825,0.63941 -0.65279,0.99803 -0.54475,0.37359 -1.01646,0.6506 -1.4169,0.83054 -0.38613,0.1472 -0.77217,0.29502 -1.15811,0.44344 -0.843389,0.22386 -1.334864,0.18539 -1.474386,-0.12061 l -9.886916,-21.68409 c -0.159314,-0.34941 -0.213166,-0.60175 -0.161398,-0.75718 0.06867,-0.16309 0.213102,-0.2947 0.433268,-0.39458 2.989109,-1.35601 5.996984,-2.6822 9.024631,-3.97468 z m 18.407791,19.1126 c 0.14229,0.3581 -0.55947,0.83865 -2.09681,1.46191 -1.55432,0.63014 -2.39797,0.78756 -2.5355,0.45498 l -8.96648,-21.68394 c -0.3208,-0.7758 -0.1627,-1.29624 0.47735,-1.55892 1.65078,-0.67748 3.30751,-1.34444 4.97036,-2.00026 4.60509,-1.81622 7.76329,-0.32667 9.46917,4.27559 0.51706,1.39496 0.78192,2.74341 0.80135,4.04204 0.011,1.27635 -0.22703,2.39074 -0.71222,3.34419 1.67204,1.67299 3.32852,3.35657 4.96872,5.05105 0.27576,0.28502 0.55104,0.57036 0.82582,0.85602 0.0348,0.30727 -0.003,0.66546 -0.11297,1.07475 -0.10086,0.37559 -0.26213,0.794 -0.48303,1.25584 -0.62351,1.3327 -1.24463,2.119 -1.88003,2.3609 -0.63469,0.24162 -1.22661,0.10969 -1.77867,-0.39745 -1.71348,-2.15495 -3.44383,-4.29991 -5.1904,-6.43513 -0.25792,0.10177 -0.51573,0.20385 -0.77343,0.30623 z m -6.76447,-17.02393 1.99346,5.01688 c 0.0421,-0.0167 0.0842,-0.0335 0.12634,-0.0502 1.59734,-0.63404 2.06149,-1.8264 1.37431,-3.59462 -0.31295,-0.80526 -0.70516,-1.33477 -1.1788,-1.58794 -0.46492,-0.28201 -1.0581,-0.28204 -1.77667,0.002 -0.17961,0.0711 -0.35916,0.14226 -0.53864,0.2136 z m 25.79149,11.07424 c -2.2788,0.73027 -4.48955,0.31746 -6.68298,-1.26082 -2.17124,-1.57986 -3.99876,-4.3488 -5.41506,-8.32587 -1.42619,-4.00482 -1.74254,-7.30391 -0.88186,-9.91908 0.87626,-2.61493 2.60988,-4.359 5.17472,-5.17708 2.58341,-0.82399 5.0087,-0.41753 7.18998,1.20041 2.1847,1.60228 3.81293,4.51323 4.9785,8.72923 1.15498,4.1777 1.25379,7.5269 0.37789,9.99303 -0.88711,2.45584 -2.44632,4.02475 -4.74119,4.76018 z m -5.75433,-18.08094 c -0.84852,0.27109 -1.39992,1.00669 -1.64631,2.19991 -0.22917,1.18889 -0.0341,2.69102 0.57371,4.51374 0.59962,1.79808 1.32881,3.10041 2.17437,3.90707 0.83915,0.78493 1.67389,1.04186 2.51354,0.77306 0.8564,-0.27416 1.39044,-0.98163 1.61081,-2.1303 0.23692,-1.15195 0.0814,-2.6504 -0.47854,-4.48543 -0.56073,-1.83763 -1.27728,-3.15983 -2.16533,-3.96711 -0.86901,-0.81145 -1.73374,-1.08203 -2.58225,-0.81094 z m 34.10909,11.22231 c -1.40182,0.16218 -2.14332,0.0312 -2.20791,-0.44452 -0.81543,-4.74593 -1.65566,-9.48864 -2.51997,-14.22802 -0.43725,4.98281 -0.72896,9.96522 -0.89874,14.94148 -0.0165,0.29655 -0.53899,0.5283 -1.57185,0.71904 -1.03422,0.19099 -1.59669,0.16979 -1.6804,-0.0831 -1.98139,-4.64216 -4.08094,-9.24906 -6.27249,-13.81842 0.90394,4.70618 1.81834,9.40969 2.74292,14.11047 0.0617,0.35535 -0.19608,0.66889 -0.77177,0.94467 -0.0156,0.007 -0.0311,0.0135 -0.0465,0.0201 0,0 0,0 0,0 -0.55895,0.24382 -1.03551,0.41399 -1.43338,0.50863 -0.39214,0.0933 -0.78443,0.15116 -1.17762,0.17365 -0.82447,0.0297 -1.28364,-0.16107 -1.37357,-0.58458 -1.72872,-7.60666 -3.43192,-15.21955 -5.10915,-22.83869 -0.13972,-0.55868 0.92986,-1.13466 3.23725,-1.66871 0.0831,-0.0192 0.16876,-0.0379 0.25692,-0.056 0.63053,-0.13163 1.39475,-0.23364 2.28933,-0.2998 1.01555,-0.099 1.62261,0.0356 1.81404,0.3877 1.83012,3.48522 3.59428,6.99769 5.27665,10.53623 0.19022,-3.89411 0.45575,-7.79257 0.80843,-11.69248 0.0764,-0.6447 1.38037,-1.18848 3.9668,-1.51502 0.74068,-0.0935 1.63768,-0.12733 2.68261,-0.0907 1.06509,0.0108 1.61279,0.19579 1.64305,0.52853 1.00515,7.80802 1.94664,15.62203 2.82225,23.44169 0.0218,0.26359 -0.26878,0.47834 -0.86856,0.65631 -0.60094,0.17832 -1.13532,0.29673 -1.60833,0.35146 z m 25.34488,0.71584 c -0.0803,0.40046 -0.9378,0.42801 -2.55283,0.13633 -1.61033,-0.29082 -2.38184,-0.60628 -2.31889,-1.01356 l 1.26531,-8.186 c -1.21013,-0.18802 -2.42028,-0.35506 -3.63,-0.49825 l -0.96656,8.21988 c -0.0476,0.40504 -0.86605,0.49931 -2.43233,0.35837 -1.56077,-0.14044 -2.32639,-0.36899 -2.30292,-0.7819 l 1.3532,-23.80637 c 0.0282,-0.49536 1.08977,-0.70899 3.16777,-0.52811 2.07133,0.18029 3.05931,0.56296 3.00048,1.0633 l -0.98756,8.39858 c 1.30082,0.15209 2.5967,0.32885 3.88719,0.52743 l 1.28181,-8.29277 c 0.0511,-0.33087 0.58426,-0.49678 1.59798,-0.47601 0.52208,0.0373 1.02919,0.0998 1.5206,0.18682 0.49702,0.11241 0.99209,0.22755 1.48523,0.34526 0.94881,0.32613 1.38307,0.66111 1.31691,0.9909 z m 16.10556,-11.06888 c 0.3349,0.0955 0.26972,0.95088 -0.1951,2.56494 -0.13952,0.48448 -0.34887,1.04787 -0.62722,1.69218 -0.25439,0.62595 -0.48389,0.90953 -0.68966,0.85091 -1.08891,-0.31019 -2.18003,-0.61048 -3.27343,-0.90017 l -0.92197,3.47909 c 1.55223,0.41113 3.10118,0.84466 4.64707,1.29849 0.28565,0.0839 0.32944,0.64754 0.12904,1.68945 -0.0797,0.452 -0.19502,0.9308 -0.34542,1.43691 -0.14369,0.48356 -0.38101,1.1003 -0.71116,1.85392 -0.32994,0.75312 -0.60776,1.09623 -0.83535,1.02936 -2.74509,-0.80653 -5.49163,-1.5438 -8.24093,-2.19881 -0.0351,-0.008 -0.0701,-0.0164 -0.1052,-0.0246 -0.62034,-0.14464 -0.84718,-0.57691 -0.67847,-1.30228 l 5.24594,-22.55557 c 0.14136,-0.60783 0.42955,-0.86113 0.8643,-0.75636 0.18198,0.0438 0.3637,0.088 0.54517,0.13239 3.20128,0.77077 6.36383,1.62067 9.48896,2.53658 0.38751,0.11357 0.27721,1.19487 -0.33004,3.24238 -0.60042,2.0245 -1.08823,2.98087 -1.46408,2.87064 -1.65553,-0.48554 -3.31951,-0.95111 -4.99215,-1.39458 l -0.93119,3.51389 c 1.14373,0.30315 2.284,0.61713 3.42089,0.9412 z m 13.07246,20.42542 c -1.41224,-0.52787 -2.06167,-1.11883 -1.9452,-1.79296 0.26177,-1.55262 0.51898,-3.10648 0.77145,-4.66159 -1.31886,-0.47639 -2.63935,-0.94209 -3.96159,-1.39575 -0.72391,1.32512 -1.44341,2.65213 -2.15837,3.98107 -0.33791,0.67306 -1.23687,0.75495 -2.69838,0.27598 -0.78025,-0.25571 -1.33791,-0.4969 -1.67607,-0.73061 -0.33049,-0.25632 -0.48554,-0.41812 -0.46394,-0.4868 3.8789,-7.29535 7.92953,-14.52099 12.12358,-21.68166 0.0614,-0.18194 1.33335,0.13586 3.78064,1.0024 2.44728,0.86655 3.6203,1.41266 3.55379,1.59282 -0.83922,5.33774 -1.73361,10.66057 -2.67561,15.96875 -0.50491,2.84585 -1.02341,5.68769 -1.55515,8.5256 -0.0605,0.1567 -0.48184,0.13492 -1.2642,-0.0604 -0.1265,-0.0316 -0.2485,-0.0627 -0.36603,-0.0934 0,0 0,0 0,0 -0.60927,-0.15883 -1.09688,-0.30583 -1.46492,-0.4434 z m -3.0168,-11.95724 c 0.88906,0.30759 1.77674,0.62028 2.66307,0.93767 0.45783,-2.4752 0.90494,-4.9533 1.34077,-7.43434 -0.0522,-0.0184 -0.10433,-0.0368 -0.15651,-0.0552 -1.29515,2.17806 -2.57787,4.36197 -3.84733,6.55185 z m 16.15592,16.50107 c -0.18758,0.44345 -1.07647,0.3226 -2.67188,-0.33845 -1.59497,-0.66087 -2.30698,-1.20319 -2.12598,-1.64935 l 6.79195,-16.74174 c -1.02267,-0.41501 -2.04753,-0.82549 -3.07464,-1.23126 -0.29102,-0.11497 -0.29433,-0.70928 -0.0114,-1.78409 0.14128,-0.51167 0.31255,-1.02449 0.51412,-1.53826 0.20159,-0.51379 0.42473,-1.00618 0.6698,-1.4771 0.52503,-0.97964 0.93676,-1.41075 1.23322,-1.29356 3.79294,1.49939 7.55221,3.05937 11.27985,4.67238 0.29136,0.12608 0.27726,0.72164 -0.0435,1.78565 -0.15936,0.50631 -0.34929,1.01239 -0.56948,1.51841 -0.22018,0.50601 -0.46106,0.98996 -0.72231,1.45195 -0.55856,0.96065 -0.98028,1.37907 -1.26684,1.25504 -0.98612,-0.4268 -1.97423,-0.84968 -2.96436,-1.2685 z m 16.70009,1.32297 5.45593,-11.59691 c -0.58943,-0.27717 -1.17953,-0.55313 -1.77033,-0.82783 -0.28291,-0.13155 -0.26542,-0.69211 0.0515,-1.68259 0.16174,-0.48048 0.35343,-0.96033 0.57532,-1.4394 0.22189,-0.47909 0.46389,-0.93562 0.72627,-1.36952 0.55168,-0.88175 0.97168,-1.25587 1.25855,-1.12254 2.8349,1.31756 5.65207,2.66255 8.45244,4.03152 0.28337,0.13852 0.24783,0.69592 -0.10731,1.67144 -0.15568,0.48514 -0.35006,0.96466 -0.58284,1.43871 -0.23277,0.47405 -0.49337,0.92109 -0.78147,1.34126 -0.5538,0.87808 -0.97009,1.24873 -1.24999,1.11185 -0.55156,-0.26973 -1.1037,-0.53848 -1.65642,-0.80622 l -5.59003,11.53499 c 0.56227,0.2726 1.12411,0.54635 1.68554,0.82123 0.2727,0.13351 0.23796,0.69145 -0.10513,1.67296 -0.15827,0.48393 -0.35399,0.96281 -0.58688,1.43682 -0.23287,0.474 -0.49232,0.92157 -0.77804,1.34286 -0.56614,0.87193 -0.98325,1.24205 -1.25248,1.11019 -2.6685,-1.30702 -5.34424,-2.58734 -8.02815,-3.83748 -0.27079,-0.12612 -0.23666,-0.67912 0.10142,-1.65987 0.14799,-0.4869 0.3328,-0.96997 0.55474,-1.44901 0.22195,-0.47906 0.47096,-0.93233 0.74738,-1.35967 0.5307,-0.89138 0.93401,-1.27309 1.20874,-1.14518 0.55753,0.25957 1.11463,0.52037 1.67129,0.78239 z m 12.21022,3.05991 c 0.14372,0.47561 0.44376,1.17617 0.89777,2.10598 0.46973,0.93733 1.03711,1.57645 1.70644,1.91881 0.68488,0.35031 1.20842,0.17467 1.57071,-0.53015 0.16463,-0.32029 0.21158,-0.64713 0.14036,-0.98054 -0.0602,-0.35465 -0.26424,-0.82384 -0.61327,-1.40639 -0.34981,-0.58385 -0.60876,-1.02349 -0.77958,-1.3265 -0.15942,-0.3235 -0.35279,-0.79798 -0.58232,-1.4252 -0.20249,-0.64022 -0.30425,-1.24232 -0.3043,-1.80661 -0.0324,-1.547 0.41974,-3.26795 1.36432,-5.15701 0.94497,-1.88986 2.27144,-3.21276 3.99205,-3.95958 1.74678,-0.75947 3.50093,-0.6913 5.24488,0.20616 1.18421,0.60941 2.18708,1.3466 3.00717,2.20841 0.83119,0.84053 1.12076,1.53616 0.87406,2.08454 l -0.10054,0.19125 c -0.39117,0.7441 -1.06711,1.59474 -2.02624,2.55592 -0.94788,0.93983 -1.52608,1.43622 -1.73867,1.48783 -0.66811,-1.24337 -1.42019,-2.07994 -2.24937,-2.50802 -0.81339,-0.41993 -1.41773,-0.24348 -1.81231,0.5252 -0.24126,0.47 -0.15437,1.04042 0.25765,1.71197 0.0856,0.15234 0.21101,0.36528 0.37652,0.64015 0.16536,0.27461 0.3463,0.59812 0.54237,0.97028 0.22327,0.35926 0.42902,0.79095 0.61676,1.29489 0.21494,0.49103 0.39775,1.10122 0.54753,1.83014 0.29345,1.50946 -0.023,3.13341 -0.94061,4.87531 -1.19701,2.27233 -2.64514,3.88444 -4.33178,4.84346 -1.6879,0.95975 -3.50368,0.95927 -5.46078,0.009 -0.94433,-0.48459 -1.7481,-1.02871 -2.4125,-1.63449 -0.64856,-0.59773 -1.1012,-1.34974 -1.35931,-2.258 -0.25803,-0.90804 -0.1694,-1.80283 0.27001,-2.68354 0.43943,-0.88074 0.99295,-1.69119 1.66247,-2.43008 0.68026,-0.76037 1.2275,-1.21118 1.64051,-1.35309 z m 10.3952,12.89434 10.55252,-19.75444 c 0.2371,-0.44386 1.17741,-0.22991 2.81382,0.65363 0.52653,0.28428 0.95665,0.54646 1.29027,0.78575 0.71585,0.51248 0.99056,0.92043 0.82649,1.22181 l -8.43386,15.49283 c 1.21251,0.65961 2.4231,1.32291 3.6318,1.989817 0.28255,0.1559 0.20555,0.757755 -0.23173,1.804823 -0.22065,0.50872 -0.4707,1.014869 -0.75,1.518583 -0.27929,0.503716 -0.5878,1.004952 -0.92535,1.503876 -0.68295,0.938645 -1.16361,1.331046 -1.44313,1.176869 -1.55543,-0.857973 -3.11389,-1.709794 -4.67542,-2.555322 -0.84226,-0.455513 -1.685,-0.909269 -2.52825,-1.361154 -0.34458,-0.184657 -0.51673,-0.521659 -0.51686,-1.01161 -1.3e-4,-0.489903 0.12958,-0.978502 0.3897,-1.465462 z m 21.84695,14.708997 c -1.33412,-0.777177 -1.88824,-1.483751 -1.65779,-2.127194 0.52468,-1.484432 1.04751,-2.969745 1.56847,-4.455941 -1.23293,-0.710702 -2.46782,-1.417773 -3.70468,-2.121142 -0.96398,1.163344 -1.92649,2.327695 -2.88753,3.493055 -0.46155,0.59411 -1.38603,0.495369 -2.77723,-0.287112 -0.74234,-0.417531 -1.26221,-0.777058 -1.55987,-1.080947 -0.2858,-0.324687 -0.41141,-0.518305 -0.37625,-0.581127 5.33932,-6.323167 10.7287,-12.611909 16.16665,-18.866639 0.095,-0.16683 1.24278,0.36979 3.43317,1.62594 2.19039,1.25615 3.23209,1.97506 3.13525,2.14082 -2.72552,7.82331 -5.50254,15.622251 -8.32962,23.397038 -0.0857,0.144447 -0.50518,0.05044 -1.2588,-0.279963 -0.75385,-0.330504 -1.33737,-0.61539 -1.75177,-0.856788 z m -0.9379,-12.33853 c 0.82206,0.468529 1.64324,0.938661 2.46353,1.410375 0.89249,-2.351762 1.7809,-4.705512 2.6652,-7.061252 -0.0474,-0.0272 -0.0949,-0.0543 -0.14234,-0.0815 -1.66663,1.90764 -3.32877,3.818433 -4.98639,5.732397 z m 19.74045,22.639889 c -0.26882,0.427046 -1.11265,0.197947 -2.53526,-0.678178 -1.42294,-0.876333 -2.10208,-1.501108 -2.03398,-1.881347 0.7037,-3.957267 1.38533,-7.923214 2.04428,-11.897886 l -5.83365,9.554457 c -0.22544,0.369228 -1.0447,0.12478 -2.46168,-0.724082 -1.40166,-0.839693 -1.99398,-1.44097 -1.7712,-1.81178 l 12.40137,-20.64173 c 0.18512,-0.30812 0.90364,-0.0918 2.15225,0.65554 0.48982,0.2932 1.02119,0.69587 1.59293,1.20808 0.60005,0.50125 0.87643,0.94889 0.8303,1.3415 -0.66879,3.913734 -1.35916,7.819073 -2.07052,11.716056 l 5.95476,-9.606998 c 0.23987,-0.386983 1.09084,-0.135969 2.54844,0.761981 1.45754,0.897916 2.06178,1.543349 1.81923,1.928661 -4.21242,6.691908 -8.42485,13.383817 -12.63727,20.075726 z m 4.3261,1.681193 11.62,-18.20653 c 0.32279,-0.505765 0.66778,-0.841627 1.03546,-1.007396 0.39612,-0.176189 0.75006,-0.166192 1.06132,0.02992 0.25491,0.160603 0.50972,0.321336 0.76444,0.482197 l 3.0852,2.015133 c 2.43615,1.591194 3.75944,3.602025 3.95995,6.025951 0.21596,2.435752 -0.81563,5.369869 -3.08663,8.818138 -4.85717,7.375101 -9.63591,9.52798 -14.33622,6.458635 l -3.23876,-2.114934 c -0.20124,-0.127043 -0.40253,-0.253998 -0.60387,-0.380864 -0.76703,-0.483315 -0.8549,-1.189541 -0.26089,-2.120253 z m 13.39448,-11.242634 -5.84198,9.039656 c -0.27353,0.423246 -0.42678,0.710137 -0.45976,0.860552 -0.0199,0.13028 0.083,0.269171 0.3089,0.416688 0.82826,0.540894 1.72075,0.536166 2.67918,-0.01304 0.97307,-0.539113 2.08331,-1.764096 3.32686,-3.674279 1.2571,-1.930991 1.84748,-3.335857 1.77035,-4.217901 -0.0619,-0.87162 -0.5807,-1.62607 -1.55516,-2.262511 -0.0761,-0.04972 -0.15226,-0.09944 -0.22839,-0.149166 z m 8.932,18.730862 c -0.0801,0.119628 -0.66278,-0.174897 -1.74796,-0.883575 -1.0701,-0.698835 -1.57195,-1.098216 -1.50553,-1.198144 3.12353,-5.024866 6.24457,-10.051371 9.36313,-15.079513 0.10619,-0.159937 0.85664,0.215587 2.25138,1.126573 1.41006,0.920997 2.06831,1.451255 1.97475,1.590776 -3.44774,4.81299 -6.89299,9.627618 -10.33577,14.443883 z m -4.92552,-0.637222 c 0.0929,-0.139949 0.83158,0.242124 2.21601,1.146221 1.39949,0.913923 2.05914,1.430679 1.97895,1.550267 l -2.88688,4.30517 c -0.13365,0.199313 -0.89647,-0.155521 -2.28846,-1.064501 -1.37702,-0.899207 -2.02572,-1.408789 -1.94609,-1.528746 z"
     fill="url(#paint0_linear_12_4)"
     id="path283"
     style="fill:url(#paint0_linear_12_4);stroke:#391f00;stroke-width:2;stroke-dasharray:none;stroke-opacity:1"
     inkscape:path-effect="#path-effect1584"
     inkscape:original-d="m 12.5,10.808 c 0.456,0 0.684,0.84 0.684,2.52 0,0.504 -0.06,1.104 -0.18,1.8 -0.096,0.672 -0.288,1.008 -0.576,1.008 H 7.856 v 3.6 h 6.624 c 0.408,0 0.684,0.528 0.828,1.584 0.072,0.456 0.108,0.948 0.108,1.476 0,0.504 -0.072,1.164 -0.216,1.98 C 15.056,25.592 14.816,26 14.48,26 H 2.168 C 1.256,26 0.8,25.628 0.8,24.884 V 1.736 C 0.8,1.112 1.076,0.799998 1.628,0.799998 h 12.888 c 0.504,0 0.756,1.068002 0.756,3.204002 0,2.112 -0.252,3.168 -0.756,3.168 h -6.66 v 3.636 z m 9.5099,6.408 c 0.456,0.36 1.236,0.852 2.34,1.476 1.128,0.624 2.196,0.936 3.204,0.936 1.032,0 1.548,-0.396 1.548,-1.188 0,-0.36 -0.144,-0.672 -0.432,-0.936 -0.288,-0.288 -0.816,-0.612 -1.584,-0.972 -0.768,-0.36 -1.344,-0.636 -1.728,-0.828 -0.384,-0.216 -0.9,-0.552 -1.548,-1.008 -0.624,-0.48 -1.104,-0.972 -1.44,-1.476 -0.96,-1.368 -1.44,-3.108 -1.44,-5.22 0,-2.112 0.78,-3.888 2.34,-5.328 1.584,-1.464 3.648,-2.196002 6.192,-2.196002 1.728,0 3.324,0.192001 4.788,0.576002 1.464,0.36 2.22,0.84 2.268,1.44 0,0.072 0,0.144 0,0.216 0,0.84 -0.264,1.908 -0.792,3.204 -0.528,1.272 -0.9,1.98 -1.116,2.124 -1.536,-0.792 -2.916,-1.188 -4.14,-1.188 -1.2,0 -1.8,0.432 -1.8,1.296 0,0.528 0.444,0.996 1.332,1.404 0.192,0.096 0.468,0.228 0.828,0.396 0.36,0.168 0.768,0.372 1.224,0.612 0.48,0.216 0.984,0.504 1.512,0.864 0.552,0.336 1.14,0.792 1.764,1.368 1.272,1.2 1.908,2.784 1.908,4.752 0,2.568 -0.708,4.668 -2.124,6.3 -1.416,1.632 -3.6,2.472 -6.552,2.52 -1.44,0 -2.748,-0.12 -3.924,-0.36 -1.152,-0.24 -2.16,-0.708 -3.024,-1.404 -0.864,-0.696 -1.296,-1.536 -1.296,-2.52 0,-0.984 0.18,-1.956 0.54,-2.916 0.36,-0.984 0.744,-1.632 1.152,-1.944 z M 53.0149,0.475998 c 1.752,0 3.288,0.252 4.608,0.756002 1.344,0.48 2.016,1.14 2.016,1.98 0,0.84 -0.324,1.884 -0.972,3.132 -0.624,1.224 -1.152,1.836 -1.584,1.836 -0.12,0 -0.264,-0.06 -0.432,-0.18 -0.144,-0.144 -0.504,-0.288 -1.08,-0.432 -0.552,-0.168 -1.032,-0.252 -1.44,-0.252 -1.392,0 -2.52,0.492 -3.384,1.476 -0.84,0.984 -1.26,2.496 -1.26,4.536 0,2.016 0.432,3.516 1.296,4.5 0.888,0.984 2.004,1.476 3.348,1.476 0.552,0 1.164,-0.072 1.836,-0.216 0.696,-0.168 1.188,-0.396 1.476,-0.684 0.048,-0.048 0.144,-0.072 0.288,-0.072 0.144,0 0.408,0.276 0.792,0.828 0.408,0.528 0.78,1.236 1.116,2.124 0.336,0.864 0.504,1.536 0.504,2.016 0,0.936 -0.72,1.68 -2.16,2.232 -1.44,0.552 -3.144,0.828 -5.112,0.828 -3.168,0 -5.772,-1.116 -7.812,-3.348 -2.04,-2.232 -3.06,-5.376 -3.06,-9.432 0,-4.08 1.044,-7.284 3.132,-9.612 2.112,-2.328 4.74,-3.492002 7.884,-3.492002 z M 82.3386,26.072 c -2.088,0 -3.216,-0.336 -3.384,-1.008 l -1.188,-4.644 h -5.724 l -1.044,4.464 c -0.144,0.744 -1.296,1.116 -3.456,1.116 -1.152,0 -2.004,-0.06 -2.556,-0.18 -0.552,-0.144 -0.828,-0.252 -0.828,-0.324 l 6.372,-24.372 c 0,-0.192002 1.644,-0.288002 4.932,-0.288002 3.288,0 4.932,0.096 4.932,0.288002 l 6.228,24.408 c 0,0.168 -0.552,0.3 -1.656,0.396 -1.104,0.096 -1.98,0.144 -2.628,0.144 z m -9.396,-10.224 h 3.78 l -1.62,-7.452 h -0.216 z m 21.7178,10.224 c -2.184,0 -3.276,-0.24 -3.276,-0.72 V 2.024 c 0,-0.816 0.372,-1.224002 1.116,-1.224002 h 6.336 c 3.5516,0 6.1076,0.732002 7.6676,2.196002 1.584,1.464 2.376,3.588 2.376,6.372 0,2.304 -0.744,4.416 -2.232,6.336 -0.744,0.96 -1.836,1.728 -3.276,2.304 -1.44,0.576 -3.12,0.864 -5.0396,0.864 v 6.444 c 0,0.288 -0.456,0.492 -1.368,0.612 -0.888,0.096 -1.656,0.144 -2.304,0.144 z m 3.672,-19.008 v 5.688 h 0.468 c 0.84,0 1.5476,-0.264 2.1236,-0.792 0.576,-0.528 0.864,-1.272 0.864,-2.232 0,-0.96 -0.204,-1.644 -0.612,-2.052 -0.384,-0.408 -1.08,-0.612 -2.0876,-0.612 z m 27.9476,3.744 c 0.456,0 0.684,0.84 0.684,2.52 0,0.504 -0.06,1.104 -0.18,1.8 -0.096,0.672 -0.288,1.008 -0.576,1.008 h -4.572 v 3.6 h 6.624 c 0.408,0 0.684,0.528 0.828,1.584 0.072,0.456 0.108,0.948 0.108,1.476 0,0.504 -0.072,1.164 -0.216,1.98 -0.144,0.816 -0.384,1.224 -0.72,1.224 h -12.312 c -0.912,0 -1.368,-0.372 -1.368,-1.116 V 1.736 c 0,-0.624 0.276,-0.936002 0.828,-0.936002 h 12.888 c 0.504,0 0.756,1.068002 0.756,3.204002 0,2.112 -0.252,3.168 -0.756,3.168 h -6.66 v 3.636 z M 157.623,0.799998 c 0.408,0 0.612,1.068002 0.612,3.204002 0,2.112 -0.204,3.168 -0.612,3.168 h -6.588 v 4.104 h 4.392 c 0.408,0 0.612,0.936 0.612,2.808 0,1.848 -0.192,2.772 -0.576,2.772 h -4.428 v 8.676 c 0,0.336 -0.456,0.552 -1.368,0.648 -0.888,0.12 -1.632,0.18 -2.232,0.18 l -1.692,-0.072 c -1.176,-0.144 -1.764,-0.384 -1.764,-0.72 V 1.736 c 0,-0.384 0.072,-0.636 0.216,-0.756002 0.168,-0.12 0.408,-0.18 0.72,-0.18 z M 170.535,25.496 c 0,0.384 -1.14,0.576 -3.42,0.576 -2.304,0 -3.456,-0.18 -3.456,-0.54 V 2.06 c 0,-0.84 0.444,-1.260002 1.332,-1.260002 h 6.876 c 6.312,0 9.468,2.460002 9.468,7.380002 0,1.488 -0.288,2.844 -0.864,4.068 -0.576,1.2 -1.392,2.16 -2.448,2.88 l 4.536,7.56 c -0.192,0.576 -0.816,1.236 -1.872,1.98 -1.44,1.032 -2.628,1.548 -3.564,1.548 -0.936,0 -1.632,-0.336 -2.088,-1.008 l -3.384,-7.884 h -1.116 z m 0,-18.324 v 5.4 h 0.18 c 2.28,0 3.42,-0.948 3.42,-2.844 0,-0.864 -0.228,-1.5 -0.684,-1.908 -0.432,-0.432 -1.152,-0.648 -2.16,-0.648 z m 27.571,19.188 c -3.36,0 -6.108,-1.104 -8.244,-3.312 -2.112,-2.208 -3.168,-5.424 -3.168,-9.648 0,-4.248 1.068,-7.464 3.204,-9.648 2.16,-2.184 4.932,-3.276002 8.316,-3.276002 3.408,0 6.156,1.080002 8.244,3.240002 2.088,2.136 3.132,5.388 3.132,9.756 0,4.344 -1.068,7.584 -3.204,9.72 -2.136,2.112 -4.896,3.168 -8.28,3.168 z m 0.036,-18.972 c -1.152,0 -2.124,0.528 -2.916,1.584 -0.768,1.056 -1.152,2.544 -1.152,4.464 0,1.896 0.372,3.36 1.116,4.392 0.744,1.008 1.716,1.512 2.916,1.512 1.224,0 2.208,-0.516 2.952,-1.548 0.768,-1.032 1.152,-2.508 1.152,-4.428 0,-1.92 -0.396,-3.396 -1.188,-4.428 -0.768,-1.032 -1.728,-1.548 -2.88,-1.548 z M 240.2,26.036 c -2.136,0 -3.204,-0.24 -3.204,-0.72 L 236.24,10.88 231.848,25.496 c -0.096,0.288 -0.912,0.432 -2.448,0.432 -1.536,0 -2.328,-0.132 -2.376,-0.396 L 222.488,10.736 221.984,25.1 c -0.024,0.36 -0.48,0.612 -1.368,0.756 -0.888,0.12 -1.632,0.18 -2.232,0.18 -0.576,0 -1.14,-0.036 -1.692,-0.108 -1.152,-0.168 -1.716,-0.468 -1.692,-0.9 l 0.828,-23.4 c 0,-0.576 1.464,-0.864001 4.392,-0.864001 0.864,0 1.92,0.072 3.168,0.215999 C 224.636,1.1 225.332,1.352 225.476,1.736 l 4.032,11.34 3.528,-11.376 c 0.216,-0.624 1.872,-0.936001 4.968,-0.936001 0.888,0 1.944,0.072 3.168,0.215999 C 242.42,1.1 243.044,1.328 243.044,1.664 l 1.044,23.616 c 0,0.264 -0.468,0.456 -1.404,0.576 -0.936,0.12 -1.764,0.18 -2.484,0.18 z m 38.869,-0.648 c 0,0.408 -1.212,0.612 -3.636,0.612 -2.424,0 -3.636,-0.204 -3.636,-0.612 v -8.28 h -5.04 v 8.28 c 0,0.408 -1.212,0.612 -3.636,0.612 -2.424,0 -3.636,-0.204 -3.636,-0.612 V 1.52 c 0,-0.504 1.212,-0.756001 3.636,-0.756001 2.424,0 3.636,0.252001 3.636,0.756001 v 8.46 h 5.04 V 1.592 c 0,-0.336 0.6,-0.576 1.8,-0.72 0.624,-0.048001 1.236,-0.072002 1.836,-0.072002 L 277.269,0.872 c 1.2,0.144 1.8,0.384 1.8,0.72 z m 17.804,-14.58 c 0.456,0 0.684,0.84 0.684,2.52 0,0.504 -0.06,1.104 -0.18,1.8 -0.096,0.672 -0.288,1.008 -0.576,1.008 h -4.572 v 3.6 h 6.624 c 0.408,0 0.684,0.528 0.828,1.584 0.072,0.456 0.108,0.948 0.108,1.476 0,0.504 -0.072,1.164 -0.216,1.98 -0.144,0.816 -0.384,1.224 -0.72,1.224 h -12.312 c -0.912,0 -1.368,-0.372 -1.368,-1.116 V 1.736 c 0,-0.624 0.276,-0.936002 0.828,-0.936002 h 12.888 c 0.504,0 0.756,1.068002 0.756,3.204002 0,2.112 -0.252,3.168 -0.756,3.168 h -6.66 v 3.636 z m 25.494,15.264 c -2.088,0 -3.216,-0.336 -3.384,-1.008 l -1.188,-4.644 h -5.724 l -1.044,4.464 c -0.144,0.744 -1.296,1.116 -3.456,1.116 -1.152,0 -2.004,-0.06 -2.556,-0.18 -0.552,-0.144 -0.828,-0.252 -0.828,-0.324 l 6.372,-24.372 c 0,-0.192002 1.644,-0.288002 4.932,-0.288002 3.288,0 4.932,0.096 4.932,0.288002 l 6.228,24.408 c 0,0.168 -0.552,0.3 -1.656,0.396 -1.104,0.096 -1.98,0.144 -2.628,0.144 z m -9.396,-10.224 h 3.78 l -1.62,-7.452 h -0.216 z m 28.508,9.576 c 0,0.48 -1.188,0.72 -3.564,0.72 -2.376,0 -3.564,-0.24 -3.564,-0.72 V 7.352 h -4.32 c -0.408,0 -0.696,-0.552 -0.864,-1.656 -0.072,-0.528 -0.108,-1.068 -0.108,-1.62 0,-0.552 0.036,-1.092 0.108,-1.62 0.168,-1.104 0.456,-1.656002 0.864,-1.656002 h 15.66 c 0.408,0 0.696,0.552002 0.864,1.656002 0.072,0.528 0.108,1.068 0.108,1.62 0,0.552 -0.036,1.092 -0.108,1.62 -0.168,1.104 -0.456,1.656 -0.864,1.656 h -4.212 z m 21.435,-5.616 V 6.992 h -2.556 c -0.408,0 -0.696,-0.516 -0.864,-1.548 -0.072,-0.504 -0.108,-1.02 -0.108,-1.548 0,-0.528 0.036,-1.044 0.108,-1.548 0.168,-1.032 0.456,-1.548002 0.864,-1.548002 h 12.096 c 0.408,0 0.684,0.516002 0.828,1.548002 0.096,0.504 0.144,1.02 0.144,1.548 0,0.528 -0.048,1.044 -0.144,1.548 -0.144,1.032 -0.42,1.548 -0.828,1.548 h -2.412 v 12.816 h 2.52 c 0.408,0 0.696,0.516 0.864,1.548 0.096,0.504 0.144,1.02 0.144,1.548 0,0.528 -0.048,1.044 -0.144,1.548 C 373.258,25.484 372.97,26 372.562,26 H 360.43 c -0.408,0 -0.684,-0.516 -0.828,-1.548 -0.096,-0.504 -0.144,-1.02 -0.144,-1.548 0,-0.528 0.048,-1.044 0.144,-1.548 0.144,-1.032 0.42,-1.548 0.828,-1.548 z m 16.514,-2.592 c 0.456,0.36 1.236,0.852 2.34,1.476 1.128,0.624 2.196,0.936 3.204,0.936 1.032,0 1.548,-0.396 1.548,-1.188 0,-0.36 -0.144,-0.672 -0.432,-0.936 -0.288,-0.288 -0.816,-0.612 -1.584,-0.972 -0.768,-0.36 -1.344,-0.636 -1.728,-0.828 -0.384,-0.216 -0.9,-0.552 -1.548,-1.008 -0.624,-0.48 -1.104,-0.972 -1.44,-1.476 -0.96,-1.368 -1.44,-3.108 -1.44,-5.22 0,-2.112 0.78,-3.888 2.34,-5.328 1.584,-1.464 3.648,-2.196002 6.192,-2.196002 1.728,0 3.324,0.192001 4.788,0.576002 1.464,0.36 2.22,0.84 2.268,1.44 0,0.072 0,0.144 0,0.216 0,0.84 -0.264,1.908 -0.792,3.204 -0.528,1.272 -0.9,1.98 -1.116,2.124 -1.536,-0.792 -2.916,-1.188 -4.14,-1.188 -1.2,0 -1.8,0.432 -1.8,1.296 0,0.528 0.444,0.996 1.332,1.404 0.192,0.096 0.468,0.228 0.828,0.396 0.36,0.168 0.768,0.372 1.224,0.612 0.48,0.216 0.984,0.504 1.512,0.864 0.552,0.336 1.14,0.792 1.764,1.368 1.272,1.2 1.908,2.784 1.908,4.752 0,2.568 -0.708,4.668 -2.124,6.3 -1.416,1.632 -3.6,2.472 -6.552,2.52 -1.44,0 -2.748,-0.12 -3.924,-0.36 -1.152,-0.24 -2.16,-0.708 -3.024,-1.404 -0.864,-0.696 -1.296,-1.536 -1.296,-2.52 0,-0.984 0.18,-1.956 0.54,-2.916 0.36,-0.984 0.744,-1.632 1.152,-1.944 z m 20.349,6.66 V 1.484 c 0,-0.504001 1.212,-0.756001 3.636,-0.756001 2.448,0 3.672,0.252 3.672,0.756001 v 17.64 h 5.544 c 0.432,0 0.732,0.564 0.9,1.692 0.072,0.552 0.108,1.116 0.108,1.692 0,0.576 -0.036,1.164 -0.108,1.764 -0.192,1.152 -0.504,1.728 -0.936,1.728 h -11.088 c -0.528,0 -0.948,-0.216 -1.26,-0.648 -0.312,-0.432 -0.468,-0.924 -0.468,-1.476 z m 35.445,2.196 c -2.088,0 -3.216,-0.336 -3.384,-1.008 L 430.65,20.42 h -5.724 l -1.044,4.464 c -0.144,0.744 -1.296,1.116 -3.456,1.116 -1.152,0 -2.004,-0.06 -2.556,-0.18 -0.552,-0.144 -0.828,-0.252 -0.828,-0.324 l 6.372,-24.372 c 0,-0.192002 1.644,-0.288002 4.932,-0.288002 3.288,0 4.932,0.096 4.932,0.288002 l 6.228,24.408 c 0,0.168 -0.552,0.3 -1.656,0.396 -1.104,0.096 -1.98,0.144 -2.628,0.144 z m -9.396,-10.224 h 3.78 l -1.62,-7.452 h -0.216 z m 38.313,9.36 c 0,0.504 -1.128,0.756 -3.384,0.756 -2.256,0 -3.48,-0.18 -3.672,-0.54 l -6.012,-11.232 v 11.196 c 0,0.432 -1.116,0.648 -3.348,0.648 -2.208,0 -3.312,-0.216 -3.312,-0.648 V 1.304 c 0,-0.360001 0.948,-0.540001 2.844,-0.540001 0.744,0 1.608,0.072 2.592,0.215999 C 450.855,1.1 451.467,1.34 451.683,1.7 l 5.76,11.088 V 1.484 c 0,-0.456 1.116,-0.684002 3.348,-0.684002 2.232,0 3.348,0.228002 3.348,0.684002 z m 6.136,-0.864 v -21.6 c 0,-0.6 0.144,-1.068 0.432,-1.404 0.312,-0.360002 0.708,-0.540002 1.188,-0.540002 h 6.012 c 3.816,0 6.708,0.960002 8.676,2.880002 1.992,1.92 2.988,4.944 2.988,9.072 0,8.832 -3.768,13.248 -11.304,13.248 h -6.156 c -1.224,0 -1.836,-0.552 -1.836,-1.656 z M 477.187,7.64 v 10.764 c 0,0.504 0.036,0.828 0.108,0.972 0.072,0.12 0.288,0.18 0.648,0.18 1.32,0 2.316,-0.492 2.988,-1.476 0.696,-0.984 1.044,-2.616 1.044,-4.896 0,-2.304 -0.36,-3.804 -1.08,-4.5 -0.696,-0.696 -1.812,-1.044 -3.348,-1.044 z m 23.552,10.8 c 0,0.144 -0.864,0.216 -2.592,0.216 -1.704,0 -2.556,-0.06 -2.556,-0.18 l -0.72,-17.748001 c 0,-0.192 1.092,-0.288 3.276,-0.288 2.208,0 3.312,0.084 3.312,0.252001 z m -5.94,2.16 c 0,-0.168 1.104,-0.252 3.312,-0.252 2.232,0 3.348,0.072 3.348,0.216 v 5.184 c 0,0.24 -1.116,0.36 -3.348,0.36 -2.208,0 -3.312,-0.072 -3.312,-0.216 z"
     class="UnoptimicedTransforms"
     transform="matrix(1.2612451,0,0,1,10.292768,158.7205)" />
  <defs
     id="defs292">
    <inkscape:path-effect
       effect="bend_path"
       id="path-effect1584"
       is_visible="true"
       lpeversion="1"
       bendpath="m -0.3,-70.046512 c 0,0 112.08908,-75.676798 173.1428,-75.360258 59.63501,0.30919 168.63394,75.360258 168.63394,75.360258"
       prop_scale="1"
       scale_y_rel="false"
       vertical="false"
       hide_knot="false"
       bendpath-nodetypes="cac" />
    <inkscape:path-effect
       effect="bend_path"
       id="path-effect406"
       is_visible="true"
       lpeversion="1"
       bendpath="M -3,13.5 H 505"
       prop_scale="1"
       scale_y_rel="false"
       vertical="false"
       hide_knot="false" />
    <linearGradient
       id="paint0_linear_12_4"
       x1="-9.309166"
       y1="-130.68994"
       x2="350.98538"
       y2="-126.51228"
       gradientUnits="userSpaceOnUse">
      <stop
         stop-color="#FFF7AB"
         id="stop287"
         offset="0"
         style="stop-color:#fff7ab;stop-opacity:1;" />
      <stop
         stop-color="#FFF7AB"
         id="stop6292"
         offset="0.56446213"
         style="stop-color:#e8c668;stop-opacity:1;" />
      <stop
         offset="1"
         stop-color="#D19526"
         id="stop289"
         style="stop-color:#fff7ab;stop-opacity:1;" />
    </linearGradient>
  </defs>
</svg>
